<svg width="476" height="176" viewBox="0 0 476 176" fill="none" xmlns="http://www.w3.org/2000/svg">
<circle cx="237" cy="36" r="34.5" fill="#A6F97F" stroke="black" stroke-width="3"/>
<circle cx="290" cy="36" r="34.5" fill="#7FD4F9" stroke="black" stroke-width="3"/>
<circle cx="186" cy="36" r="34.5" fill="#F9A47F" stroke="black" stroke-width="3"/>
<mask id="path-4-outside-1_73_7" maskUnits="userSpaceOnUse" x="5" y="80" width="471" height="78" fill="black">
<rect fill="white" x="5" y="80" width="471" height="78"/>
<path d="M26.864 152.736C23.1227 152.736 19.5653 152.644 16.192 152.46C12.88 152.276 10.2427 152.061 8.28 151.816V87.784C10.4267 87.5387 13.0947 87.324 16.284 87.14C19.4733 86.956 23.1227 86.864 27.232 86.864C35.0827 86.864 41.124 88.3667 45.356 91.372C49.588 94.316 51.704 98.3333 51.704 103.424C51.704 106.797 50.784 109.68 48.944 112.072C47.1653 114.403 44.5587 116.335 41.124 117.868C45.2947 119.34 48.4533 121.395 50.6 124.032C52.7467 126.608 53.82 129.797 53.82 133.6C53.82 139.427 51.52 144.088 46.92 147.584C42.32 151.019 35.6347 152.736 26.864 152.736ZM17.02 115.384H27.14C31.9853 115.384 35.8187 114.372 38.64 112.348C41.5227 110.324 42.964 107.717 42.964 104.528C42.964 101.093 41.5533 98.4867 38.732 96.708C35.9107 94.868 32.0467 93.948 27.14 93.948C25.116 93.948 23.276 94.0093 21.62 94.132C19.964 94.1933 18.4307 94.2853 17.02 94.408V115.384ZM27.508 145.468C32.9667 145.468 37.2293 144.487 40.296 142.524C43.3627 140.561 44.896 137.709 44.896 133.968C44.896 130.288 43.3933 127.405 40.388 125.32C37.3827 123.235 33.0893 122.192 27.508 122.192H17.02V144.916C20.2707 145.284 23.7667 145.468 27.508 145.468ZM84.4452 153.104C77.5759 153.104 72.1172 150.927 68.0692 146.572C64.0826 142.156 62.0892 135.992 62.0892 128.08C62.0892 123.296 62.9786 119.033 64.7572 115.292C66.5972 111.489 69.1426 108.515 72.3932 106.368C75.6439 104.16 79.4159 103.056 83.7092 103.056C88.3092 103.056 92.1119 104.068 95.1172 106.092C98.1839 108.055 100.484 110.723 102.017 114.096C103.551 117.469 104.317 121.18 104.317 125.228C104.317 127.375 104.225 129.46 104.041 131.484H70.5532C71.1052 135.961 72.6692 139.457 75.2452 141.972C77.8212 144.487 81.2252 145.744 85.4572 145.744C88.2172 145.744 90.7012 145.468 92.9092 144.916C95.1172 144.303 97.2332 143.536 99.2572 142.616L101.189 149.7C98.9812 150.681 96.4972 151.479 93.7372 152.092C90.9772 152.767 87.8799 153.104 84.4452 153.104ZM70.4612 124.768H96.6812C96.6812 120.107 95.5159 116.519 93.1852 114.004C90.8546 111.489 87.6346 110.232 83.5252 110.232C79.9679 110.232 77.0239 111.489 74.6932 114.004C72.3626 116.457 70.9519 120.045 70.4612 124.768ZM132.096 153.104C127.496 153.104 123.847 151.601 121.148 148.596C118.511 145.529 117.192 141.175 117.192 135.532V113.084H108.912V105.908H117.376L119.124 90.82H125.472V105.908H138.72V113.084H125.472V136.176C125.472 139.733 126.208 142.217 127.68 143.628C129.214 145.039 131.023 145.744 133.108 145.744C134.642 145.744 136.083 145.499 137.432 145.008C138.843 144.517 140.131 143.935 141.296 143.26L143.596 149.884C142.37 150.62 140.714 151.325 138.628 152C136.543 152.736 134.366 153.104 132.096 153.104ZM168.663 153.104C164.063 153.104 160.413 151.601 157.715 148.596C155.077 145.529 153.759 141.175 153.759 135.532V113.084H145.479V105.908H153.943L155.691 90.82H162.039V105.908H175.287V113.084H162.039V136.176C162.039 139.733 162.775 142.217 164.247 143.628C165.78 145.039 167.589 145.744 169.675 145.744C171.208 145.744 172.649 145.499 173.999 145.008C175.409 144.517 176.697 143.935 177.863 143.26L180.163 149.884C178.936 150.62 177.28 151.325 175.195 152C173.109 152.736 170.932 153.104 168.663 153.104ZM205.824 153.104C198.955 153.104 193.496 150.927 189.448 146.572C185.461 142.156 183.468 135.992 183.468 128.08C183.468 123.296 184.357 119.033 186.136 115.292C187.976 111.489 190.521 108.515 193.772 106.368C197.023 104.16 200.795 103.056 205.088 103.056C209.688 103.056 213.491 104.068 216.496 106.092C219.563 108.055 221.863 110.723 223.396 114.096C224.929 117.469 225.696 121.18 225.696 125.228C225.696 127.375 225.604 129.46 225.42 131.484H191.932C192.484 135.961 194.048 139.457 196.624 141.972C199.2 144.487 202.604 145.744 206.836 145.744C209.596 145.744 212.08 145.468 214.288 144.916C216.496 144.303 218.612 143.536 220.636 142.616L222.568 149.7C220.36 150.681 217.876 151.479 215.116 152.092C212.356 152.767 209.259 153.104 205.824 153.104ZM191.84 124.768H218.06C218.06 120.107 216.895 116.519 214.564 114.004C212.233 111.489 209.013 110.232 204.904 110.232C201.347 110.232 198.403 111.489 196.072 114.004C193.741 116.457 192.331 120.045 191.84 124.768ZM236.731 152V104.16H244.735V114.556C245.532 112.532 246.606 110.661 247.955 108.944C249.304 107.165 250.991 105.755 253.015 104.712C255.039 103.608 257.4 103.056 260.099 103.056C261.019 103.056 261.939 103.117 262.859 103.24C263.779 103.301 264.546 103.424 265.159 103.608L262.675 112.164C261.51 111.673 260.13 111.428 258.535 111.428C256.266 111.428 254.088 112.072 252.003 113.36C249.979 114.648 248.292 116.641 246.943 119.34C245.655 122.039 245.011 125.473 245.011 129.644V152H236.731ZM295.005 153.104C292.245 153.104 289.639 152.613 287.185 151.632C284.793 150.589 282.8 149.393 281.205 148.044V152H273.477V83.92H281.757V109.128C282.984 107.717 284.763 106.368 287.093 105.08C289.485 103.731 292.307 103.056 295.557 103.056C299.237 103.056 302.672 104.037 305.861 106C309.112 107.901 311.719 110.692 313.681 114.372C315.644 117.991 316.625 122.407 316.625 127.62C316.625 131.423 316.012 134.888 314.785 138.016C313.559 141.144 311.903 143.843 309.817 146.112C307.793 148.32 305.493 150.037 302.917 151.264C300.341 152.491 297.704 153.104 295.005 153.104ZM292.797 145.744C295.803 145.744 298.44 145.008 300.709 143.536C303.04 142.064 304.849 139.979 306.137 137.28C307.487 134.581 308.161 131.453 308.161 127.896C308.161 124.216 307.487 121.057 306.137 118.42C304.849 115.783 303.101 113.759 300.893 112.348C298.747 110.937 296.355 110.232 293.717 110.232C291.08 110.232 288.688 110.907 286.541 112.256C284.456 113.544 282.861 114.955 281.757 116.488V142.064C283.168 143.168 284.824 144.057 286.725 144.732C288.627 145.407 290.651 145.744 292.797 145.744ZM348.25 153.104C343.712 153.104 339.633 152.061 336.014 149.976C332.396 147.829 329.544 144.885 327.458 141.144C325.434 137.341 324.422 132.987 324.422 128.08C324.422 122.928 325.465 118.481 327.55 114.74C329.636 110.999 332.488 108.116 336.106 106.092C339.725 104.068 343.773 103.056 348.25 103.056C352.728 103.056 356.745 104.068 360.302 106.092C363.921 108.116 366.773 110.999 368.858 114.74C371.005 118.42 372.078 122.805 372.078 127.896C372.078 132.987 371.036 137.433 368.95 141.236C366.865 144.977 364.013 147.891 360.394 149.976C356.837 152.061 352.789 153.104 348.25 153.104ZM348.25 145.744C353.096 145.744 356.868 144.119 359.566 140.868C362.265 137.556 363.614 133.293 363.614 128.08C363.614 124.891 362.94 121.977 361.59 119.34C360.241 116.641 358.401 114.495 356.07 112.9C353.801 111.244 351.194 110.416 348.25 110.416C343.405 110.416 339.633 112.011 336.934 115.2C334.236 118.389 332.886 122.621 332.886 127.896C332.886 131.085 333.561 134.06 334.91 136.82C336.26 139.519 338.069 141.696 340.338 143.352C342.669 144.947 345.306 145.744 348.25 145.744ZM413.203 152.828L397.103 132.864L381.187 152.644L375.299 147.492L392.319 127.712L375.943 108.76L382.383 103.148L397.195 122.284L411.731 103.516L417.895 108.76L401.979 127.344L419.459 147.492L413.203 152.828ZM444.515 153.104C440.59 153.104 437.002 152.092 433.751 150.068C430.501 148.044 427.925 145.192 426.023 141.512C424.122 137.771 423.171 133.385 423.171 128.356C423.171 123.511 424.122 119.187 426.023 115.384C427.986 111.581 430.562 108.576 433.751 106.368C437.002 104.16 440.559 103.056 444.423 103.056C447.613 103.056 450.342 103.7 452.611 104.988C454.942 106.276 456.751 107.595 458.039 108.944V83.92H466.319V140.408C466.319 142.739 466.871 144.272 467.975 145.008C469.141 145.683 470.398 146.02 471.747 146.02L469.999 152.46C464.173 152.46 460.615 150.129 459.327 145.468C457.978 147.369 456.077 149.117 453.623 150.712C451.231 152.307 448.195 153.104 444.515 153.104ZM446.355 145.744C448.625 145.744 450.771 145.223 452.795 144.18C454.881 143.076 456.629 141.665 458.039 139.948V116.212C456.874 114.74 455.249 113.391 453.163 112.164C451.078 110.876 448.778 110.232 446.263 110.232C443.319 110.232 440.743 111.029 438.535 112.624C436.327 114.219 434.61 116.365 433.383 119.064C432.218 121.701 431.635 124.707 431.635 128.08C431.635 131.453 432.279 134.489 433.567 137.188C434.855 139.825 436.603 141.911 438.811 143.444C441.081 144.977 443.595 145.744 446.355 145.744Z"/>
</mask>
<path d="M26.864 152.736C23.1227 152.736 19.5653 152.644 16.192 152.46C12.88 152.276 10.2427 152.061 8.28 151.816V87.784C10.4267 87.5387 13.0947 87.324 16.284 87.14C19.4733 86.956 23.1227 86.864 27.232 86.864C35.0827 86.864 41.124 88.3667 45.356 91.372C49.588 94.316 51.704 98.3333 51.704 103.424C51.704 106.797 50.784 109.68 48.944 112.072C47.1653 114.403 44.5587 116.335 41.124 117.868C45.2947 119.34 48.4533 121.395 50.6 124.032C52.7467 126.608 53.82 129.797 53.82 133.6C53.82 139.427 51.52 144.088 46.92 147.584C42.32 151.019 35.6347 152.736 26.864 152.736ZM17.02 115.384H27.14C31.9853 115.384 35.8187 114.372 38.64 112.348C41.5227 110.324 42.964 107.717 42.964 104.528C42.964 101.093 41.5533 98.4867 38.732 96.708C35.9107 94.868 32.0467 93.948 27.14 93.948C25.116 93.948 23.276 94.0093 21.62 94.132C19.964 94.1933 18.4307 94.2853 17.02 94.408V115.384ZM27.508 145.468C32.9667 145.468 37.2293 144.487 40.296 142.524C43.3627 140.561 44.896 137.709 44.896 133.968C44.896 130.288 43.3933 127.405 40.388 125.32C37.3827 123.235 33.0893 122.192 27.508 122.192H17.02V144.916C20.2707 145.284 23.7667 145.468 27.508 145.468ZM84.4452 153.104C77.5759 153.104 72.1172 150.927 68.0692 146.572C64.0826 142.156 62.0892 135.992 62.0892 128.08C62.0892 123.296 62.9786 119.033 64.7572 115.292C66.5972 111.489 69.1426 108.515 72.3932 106.368C75.6439 104.16 79.4159 103.056 83.7092 103.056C88.3092 103.056 92.1119 104.068 95.1172 106.092C98.1839 108.055 100.484 110.723 102.017 114.096C103.551 117.469 104.317 121.18 104.317 125.228C104.317 127.375 104.225 129.46 104.041 131.484H70.5532C71.1052 135.961 72.6692 139.457 75.2452 141.972C77.8212 144.487 81.2252 145.744 85.4572 145.744C88.2172 145.744 90.7012 145.468 92.9092 144.916C95.1172 144.303 97.2332 143.536 99.2572 142.616L101.189 149.7C98.9812 150.681 96.4972 151.479 93.7372 152.092C90.9772 152.767 87.8799 153.104 84.4452 153.104ZM70.4612 124.768H96.6812C96.6812 120.107 95.5159 116.519 93.1852 114.004C90.8546 111.489 87.6346 110.232 83.5252 110.232C79.9679 110.232 77.0239 111.489 74.6932 114.004C72.3626 116.457 70.9519 120.045 70.4612 124.768ZM132.096 153.104C127.496 153.104 123.847 151.601 121.148 148.596C118.511 145.529 117.192 141.175 117.192 135.532V113.084H108.912V105.908H117.376L119.124 90.82H125.472V105.908H138.72V113.084H125.472V136.176C125.472 139.733 126.208 142.217 127.68 143.628C129.214 145.039 131.023 145.744 133.108 145.744C134.642 145.744 136.083 145.499 137.432 145.008C138.843 144.517 140.131 143.935 141.296 143.26L143.596 149.884C142.37 150.62 140.714 151.325 138.628 152C136.543 152.736 134.366 153.104 132.096 153.104ZM168.663 153.104C164.063 153.104 160.413 151.601 157.715 148.596C155.077 145.529 153.759 141.175 153.759 135.532V113.084H145.479V105.908H153.943L155.691 90.82H162.039V105.908H175.287V113.084H162.039V136.176C162.039 139.733 162.775 142.217 164.247 143.628C165.78 145.039 167.589 145.744 169.675 145.744C171.208 145.744 172.649 145.499 173.999 145.008C175.409 144.517 176.697 143.935 177.863 143.26L180.163 149.884C178.936 150.62 177.28 151.325 175.195 152C173.109 152.736 170.932 153.104 168.663 153.104ZM205.824 153.104C198.955 153.104 193.496 150.927 189.448 146.572C185.461 142.156 183.468 135.992 183.468 128.08C183.468 123.296 184.357 119.033 186.136 115.292C187.976 111.489 190.521 108.515 193.772 106.368C197.023 104.16 200.795 103.056 205.088 103.056C209.688 103.056 213.491 104.068 216.496 106.092C219.563 108.055 221.863 110.723 223.396 114.096C224.929 117.469 225.696 121.18 225.696 125.228C225.696 127.375 225.604 129.46 225.42 131.484H191.932C192.484 135.961 194.048 139.457 196.624 141.972C199.2 144.487 202.604 145.744 206.836 145.744C209.596 145.744 212.08 145.468 214.288 144.916C216.496 144.303 218.612 143.536 220.636 142.616L222.568 149.7C220.36 150.681 217.876 151.479 215.116 152.092C212.356 152.767 209.259 153.104 205.824 153.104ZM191.84 124.768H218.06C218.06 120.107 216.895 116.519 214.564 114.004C212.233 111.489 209.013 110.232 204.904 110.232C201.347 110.232 198.403 111.489 196.072 114.004C193.741 116.457 192.331 120.045 191.84 124.768ZM236.731 152V104.16H244.735V114.556C245.532 112.532 246.606 110.661 247.955 108.944C249.304 107.165 250.991 105.755 253.015 104.712C255.039 103.608 257.4 103.056 260.099 103.056C261.019 103.056 261.939 103.117 262.859 103.24C263.779 103.301 264.546 103.424 265.159 103.608L262.675 112.164C261.51 111.673 260.13 111.428 258.535 111.428C256.266 111.428 254.088 112.072 252.003 113.36C249.979 114.648 248.292 116.641 246.943 119.34C245.655 122.039 245.011 125.473 245.011 129.644V152H236.731ZM295.005 153.104C292.245 153.104 289.639 152.613 287.185 151.632C284.793 150.589 282.8 149.393 281.205 148.044V152H273.477V83.92H281.757V109.128C282.984 107.717 284.763 106.368 287.093 105.08C289.485 103.731 292.307 103.056 295.557 103.056C299.237 103.056 302.672 104.037 305.861 106C309.112 107.901 311.719 110.692 313.681 114.372C315.644 117.991 316.625 122.407 316.625 127.62C316.625 131.423 316.012 134.888 314.785 138.016C313.559 141.144 311.903 143.843 309.817 146.112C307.793 148.32 305.493 150.037 302.917 151.264C300.341 152.491 297.704 153.104 295.005 153.104ZM292.797 145.744C295.803 145.744 298.44 145.008 300.709 143.536C303.04 142.064 304.849 139.979 306.137 137.28C307.487 134.581 308.161 131.453 308.161 127.896C308.161 124.216 307.487 121.057 306.137 118.42C304.849 115.783 303.101 113.759 300.893 112.348C298.747 110.937 296.355 110.232 293.717 110.232C291.08 110.232 288.688 110.907 286.541 112.256C284.456 113.544 282.861 114.955 281.757 116.488V142.064C283.168 143.168 284.824 144.057 286.725 144.732C288.627 145.407 290.651 145.744 292.797 145.744ZM348.25 153.104C343.712 153.104 339.633 152.061 336.014 149.976C332.396 147.829 329.544 144.885 327.458 141.144C325.434 137.341 324.422 132.987 324.422 128.08C324.422 122.928 325.465 118.481 327.55 114.74C329.636 110.999 332.488 108.116 336.106 106.092C339.725 104.068 343.773 103.056 348.25 103.056C352.728 103.056 356.745 104.068 360.302 106.092C363.921 108.116 366.773 110.999 368.858 114.74C371.005 118.42 372.078 122.805 372.078 127.896C372.078 132.987 371.036 137.433 368.95 141.236C366.865 144.977 364.013 147.891 360.394 149.976C356.837 152.061 352.789 153.104 348.25 153.104ZM348.25 145.744C353.096 145.744 356.868 144.119 359.566 140.868C362.265 137.556 363.614 133.293 363.614 128.08C363.614 124.891 362.94 121.977 361.59 119.34C360.241 116.641 358.401 114.495 356.07 112.9C353.801 111.244 351.194 110.416 348.25 110.416C343.405 110.416 339.633 112.011 336.934 115.2C334.236 118.389 332.886 122.621 332.886 127.896C332.886 131.085 333.561 134.06 334.91 136.82C336.26 139.519 338.069 141.696 340.338 143.352C342.669 144.947 345.306 145.744 348.25 145.744ZM413.203 152.828L397.103 132.864L381.187 152.644L375.299 147.492L392.319 127.712L375.943 108.76L382.383 103.148L397.195 122.284L411.731 103.516L417.895 108.76L401.979 127.344L419.459 147.492L413.203 152.828ZM444.515 153.104C440.59 153.104 437.002 152.092 433.751 150.068C430.501 148.044 427.925 145.192 426.023 141.512C424.122 137.771 423.171 133.385 423.171 128.356C423.171 123.511 424.122 119.187 426.023 115.384C427.986 111.581 430.562 108.576 433.751 106.368C437.002 104.16 440.559 103.056 444.423 103.056C447.613 103.056 450.342 103.7 452.611 104.988C454.942 106.276 456.751 107.595 458.039 108.944V83.92H466.319V140.408C466.319 142.739 466.871 144.272 467.975 145.008C469.141 145.683 470.398 146.02 471.747 146.02L469.999 152.46C464.173 152.46 460.615 150.129 459.327 145.468C457.978 147.369 456.077 149.117 453.623 150.712C451.231 152.307 448.195 153.104 444.515 153.104ZM446.355 145.744C448.625 145.744 450.771 145.223 452.795 144.18C454.881 143.076 456.629 141.665 458.039 139.948V116.212C456.874 114.74 455.249 113.391 453.163 112.164C451.078 110.876 448.778 110.232 446.263 110.232C443.319 110.232 440.743 111.029 438.535 112.624C436.327 114.219 434.61 116.365 433.383 119.064C432.218 121.701 431.635 124.707 431.635 128.08C431.635 131.453 432.279 134.489 433.567 137.188C434.855 139.825 436.603 141.911 438.811 143.444C441.081 144.977 443.595 145.744 446.355 145.744Z" fill="white"/>
<path d="M16.192 152.46L16.0256 155.455L16.0286 155.456L16.192 152.46ZM8.28 151.816H5.28V154.464L7.9079 154.793L8.28 151.816ZM8.28 87.784L7.93936 84.8034L5.28 85.1073V87.784H8.28ZM16.284 87.14L16.1112 84.145L16.1112 84.145L16.284 87.14ZM45.356 91.372L43.619 93.818L43.6309 93.8264L43.6428 93.8347L45.356 91.372ZM48.944 112.072L46.5661 110.243L46.5591 110.252L48.944 112.072ZM41.124 117.868L39.901 115.129L33.0342 118.194L40.1255 120.697L41.124 117.868ZM50.6 124.032L48.2733 125.926L48.2842 125.939L48.2953 125.953L50.6 124.032ZM46.92 147.584L48.7149 149.988L48.7251 149.98L48.7353 149.972L46.92 147.584ZM17.02 115.384H14.02V118.384H17.02V115.384ZM38.64 112.348L36.9161 109.893L36.9036 109.902L36.8913 109.91L38.64 112.348ZM38.732 96.708L37.0932 99.2208L37.1126 99.2335L37.1321 99.2458L38.732 96.708ZM21.62 94.132L21.731 97.1299L21.7864 97.1279L21.8416 97.1238L21.62 94.132ZM17.02 94.408L16.7601 91.4193L14.02 91.6575V94.408H17.02ZM40.296 142.524L38.6788 139.997L38.6788 139.997L40.296 142.524ZM40.388 125.32L42.0982 122.855L42.0982 122.855L40.388 125.32ZM17.02 122.192V119.192H14.02V122.192H17.02ZM17.02 144.916H14.02V147.596L16.6825 147.897L17.02 144.916ZM26.864 149.736C23.1715 149.736 19.6689 149.645 16.3554 149.464L16.0286 155.456C19.4618 155.643 23.0739 155.736 26.864 155.736V149.736ZM16.3584 149.465C13.076 149.282 10.5162 149.072 8.6521 148.839L7.9079 154.793C9.96911 155.05 12.684 155.27 16.0256 155.455L16.3584 149.465ZM11.28 151.816V87.784H5.28V151.816H11.28ZM8.62064 90.7646C10.692 90.5279 13.2998 90.3172 16.4568 90.135L16.1112 84.145C12.8896 84.3308 10.1613 84.5495 7.93936 84.8034L8.62064 90.7646ZM16.4568 90.135C19.5751 89.9551 23.165 89.864 27.232 89.864V83.864C23.0804 83.864 19.3716 83.9569 16.1112 84.145L16.4568 90.135ZM27.232 89.864C34.7606 89.864 40.0941 91.3148 43.619 93.818L47.093 88.926C42.1539 85.4185 35.4048 83.864 27.232 83.864V89.864ZM43.6428 93.8347C47.0809 96.2264 48.704 99.3302 48.704 103.424H54.704C54.704 97.3365 52.0951 92.4056 47.0692 88.9093L43.6428 93.8347ZM48.704 103.424C48.704 106.218 47.9554 108.437 46.5661 110.243L51.3219 113.901C53.6127 110.923 54.704 107.377 54.704 103.424H48.704ZM46.5591 110.252C45.159 112.087 43.004 113.743 39.901 115.129L42.347 120.607C46.1133 118.926 49.1717 116.719 51.3289 113.892L46.5591 110.252ZM40.1255 120.697C43.9292 122.039 46.565 123.827 48.2733 125.926L52.9267 122.138C50.3417 118.962 46.6602 116.641 42.1225 115.039L40.1255 120.697ZM48.2953 125.953C49.9327 127.917 50.82 130.399 50.82 133.6H56.82C56.82 129.195 55.5606 125.299 52.9047 122.111L48.2953 125.953ZM50.82 133.6C50.82 138.498 48.9509 142.272 45.1048 145.196L48.7353 149.972C54.0891 145.904 56.82 140.355 56.82 133.6H50.82ZM45.1251 145.18C41.2528 148.072 35.3098 149.736 26.864 149.736V155.736C35.9596 155.736 43.3872 153.966 48.7149 149.988L45.1251 145.18ZM17.02 118.384H27.14V112.384H17.02V118.384ZM27.14 118.384C32.3716 118.384 36.8916 117.294 40.3887 114.786L36.8913 109.91C34.7458 111.45 31.5991 112.384 27.14 112.384V118.384ZM40.3639 114.803C43.9491 112.286 45.964 108.808 45.964 104.528H39.964C39.964 106.627 39.0963 108.362 36.9161 109.893L40.3639 114.803ZM45.964 104.528C45.964 100.1 44.0558 96.5179 40.3319 94.1702L37.1321 99.2458C39.0509 100.455 39.964 102.086 39.964 104.528H45.964ZM40.3708 94.1952C36.8871 91.9232 32.377 90.948 27.14 90.948V96.948C31.7164 96.948 34.9343 97.8128 37.0932 99.2208L40.3708 94.1952ZM27.14 90.948C25.0574 90.948 23.142 91.011 21.3984 91.1402L21.8416 97.1238C23.41 97.0076 25.1746 96.948 27.14 96.948V90.948ZM21.509 91.1341C19.8114 91.1969 18.2278 91.2917 16.7601 91.4193L17.2799 97.3967C18.6335 97.279 20.1166 97.1897 21.731 97.1299L21.509 91.1341ZM14.02 94.408V115.384H20.02V94.408H14.02ZM27.508 148.468C33.2724 148.468 38.1793 147.44 41.9132 145.051L38.6788 139.997C36.2793 141.533 32.6609 142.468 27.508 142.468V148.468ZM41.9132 145.051C45.8698 142.519 47.896 138.698 47.896 133.968H41.896C41.896 136.721 40.8555 138.604 38.6788 139.997L41.9132 145.051ZM47.896 133.968C47.896 129.312 45.9173 125.505 42.0982 122.855L38.6778 127.785C40.8694 129.305 41.896 131.264 41.896 133.968H47.896ZM42.0982 122.855C38.3901 120.282 33.3998 119.192 27.508 119.192V125.192C32.7789 125.192 36.3753 126.187 38.6778 127.785L42.0982 122.855ZM27.508 119.192H17.02V125.192H27.508V119.192ZM14.02 122.192V144.916H20.02V122.192H14.02ZM16.6825 147.897C20.0598 148.279 23.6696 148.468 27.508 148.468V142.468C23.8638 142.468 20.4815 142.289 17.3575 141.935L16.6825 147.897ZM68.0692 146.572L65.8424 148.582L65.8571 148.599L65.8719 148.615L68.0692 146.572ZM64.7572 115.292L62.0567 113.985L62.0522 113.995L62.0478 114.004L64.7572 115.292ZM72.3932 106.368L74.0464 108.871L74.0627 108.861L74.0789 108.85L72.3932 106.368ZM95.1172 106.092L93.4414 108.58L93.4705 108.6L93.5001 108.619L95.1172 106.092ZM102.017 114.096L104.748 112.855L104.748 112.855L102.017 114.096ZM104.041 131.484V134.484H106.781L107.029 131.756L104.041 131.484ZM70.5532 131.484V128.484H67.1606L67.5758 131.851L70.5532 131.484ZM92.9092 144.916L93.6368 147.826L93.6746 147.817L93.7122 147.807L92.9092 144.916ZM99.2572 142.616L102.152 141.827L101.224 138.427L98.0158 139.885L99.2572 142.616ZM101.189 149.7L102.408 152.441L104.761 151.395L104.084 148.911L101.189 149.7ZM93.7372 152.092L93.0864 149.163L93.0556 149.17L93.0249 149.178L93.7372 152.092ZM70.4612 124.768L67.4773 124.458L67.1334 127.768H70.4612V124.768ZM96.6812 124.768V127.768H99.6812V124.768H96.6812ZM93.1852 114.004L90.9849 116.043L90.9849 116.043L93.1852 114.004ZM74.6932 114.004L76.8682 116.07L76.8809 116.057L76.8935 116.043L74.6932 114.004ZM84.4452 150.104C78.2676 150.104 73.657 148.177 70.2665 144.529L65.8719 148.615C70.5774 153.677 76.8842 156.104 84.4452 156.104V150.104ZM70.296 144.562C66.9522 140.858 65.0892 135.499 65.0892 128.08H59.0892C59.0892 136.485 61.2129 143.454 65.8424 148.582L70.296 144.562ZM65.0892 128.08C65.0892 123.673 65.9068 119.861 67.4666 116.58L62.0478 114.004C60.0503 118.206 59.0892 122.919 59.0892 128.08H65.0892ZM67.4577 116.599C69.0831 113.239 71.2839 110.696 74.0464 108.871L70.74 103.865C67.0012 106.334 64.1113 109.739 62.0567 113.985L67.4577 116.599ZM74.0789 108.85C76.7862 107.011 79.9588 106.056 83.7092 106.056V100.056C78.8729 100.056 74.5015 101.309 70.7076 103.886L74.0789 108.85ZM83.7092 106.056C87.8727 106.056 91.0496 106.969 93.4414 108.58L96.793 103.604C93.1742 101.167 88.7457 100.056 83.7092 100.056V106.056ZM93.5001 108.619C96.0701 110.264 97.9878 112.481 99.2861 115.337L104.748 112.855C102.98 108.964 100.298 105.846 96.7344 103.565L93.5001 108.619ZM99.2861 115.337C100.626 118.286 101.317 121.568 101.317 125.228H107.317C107.317 120.792 106.475 116.653 104.748 112.855L99.2861 115.337ZM101.317 125.228C101.317 127.289 101.229 129.284 101.054 131.212L107.029 131.756C107.222 129.636 107.317 127.46 107.317 125.228H101.317ZM104.041 128.484H70.5532V134.484H104.041V128.484ZM67.5758 131.851C68.1895 136.83 69.9734 141.018 73.1496 144.119L77.3408 139.825C75.3651 137.897 74.0209 135.093 73.5307 131.117L67.5758 131.851ZM73.1496 144.119C76.3834 147.276 80.5897 148.744 85.4572 148.744V142.744C81.8608 142.744 79.259 141.698 77.3408 139.825L73.1496 144.119ZM85.4572 148.744C88.4125 148.744 91.1468 148.449 93.6368 147.826L92.1816 142.006C90.2556 142.487 88.0219 142.744 85.4572 142.744V148.744ZM93.7122 147.807C96.0656 147.153 98.3286 146.333 100.499 145.347L98.0158 139.885C96.1379 140.739 94.1688 141.453 92.1063 142.025L93.7122 147.807ZM96.3629 143.405L98.2949 150.489L104.084 148.911L102.152 141.827L96.3629 143.405ZM99.9708 146.959C97.973 147.846 95.6835 148.586 93.0864 149.163L94.388 155.021C97.311 154.371 99.9894 153.516 102.408 152.441L99.9708 146.959ZM93.0249 149.178C90.5405 149.785 87.6879 150.104 84.4452 150.104V156.104C88.0719 156.104 91.414 155.748 94.4496 155.006L93.0249 149.178ZM70.4612 127.768H96.6812V121.768H70.4612V127.768ZM99.6812 124.768C99.6812 119.626 98.3912 115.208 95.3855 111.965L90.9849 116.043C92.6406 117.83 93.6812 120.587 93.6812 124.768H99.6812ZM95.3855 111.965C92.3755 108.717 88.29 107.232 83.5252 107.232V113.232C86.9791 113.232 89.3336 114.262 90.9849 116.043L95.3855 111.965ZM83.5252 107.232C79.1681 107.232 75.415 108.812 72.4929 111.965L76.8935 116.043C78.6328 114.167 80.7676 113.232 83.5252 113.232V107.232ZM72.5182 111.938C69.5795 115.031 68.0094 119.336 67.4773 124.458L73.4452 125.078C73.8944 120.754 75.1457 117.883 76.8682 116.07L72.5182 111.938ZM121.148 148.596L118.874 150.552L118.895 150.576L118.916 150.6L121.148 148.596ZM117.192 113.084H120.192V110.084H117.192V113.084ZM108.912 113.084H105.912V116.084H108.912V113.084ZM108.912 105.908V102.908H105.912V105.908H108.912ZM117.376 105.908V108.908H120.049L120.356 106.253L117.376 105.908ZM119.124 90.82V87.82H116.452L116.144 90.4747L119.124 90.82ZM125.472 90.82H128.472V87.82H125.472V90.82ZM125.472 105.908H122.472V108.908H125.472V105.908ZM138.72 105.908H141.72V102.908H138.72V105.908ZM138.72 113.084V116.084H141.72V113.084H138.72ZM125.472 113.084V110.084H122.472V113.084H125.472ZM127.68 143.628L125.604 145.794L125.627 145.815L125.649 145.836L127.68 143.628ZM137.432 145.008L136.447 142.175L136.427 142.181L136.407 142.189L137.432 145.008ZM141.296 143.26L144.13 142.276L142.938 138.843L139.793 140.664L141.296 143.26ZM143.596 149.884L145.14 152.456L147.23 151.202L146.43 148.9L143.596 149.884ZM138.628 152L137.705 149.146L137.667 149.158L137.63 149.171L138.628 152ZM132.096 150.104C128.217 150.104 125.428 148.872 123.38 146.592L118.916 150.6C122.266 154.331 126.775 156.104 132.096 156.104V150.104ZM123.423 146.64C121.409 144.299 120.192 140.739 120.192 135.532H114.192C114.192 141.611 115.612 146.76 118.874 150.552L123.423 146.64ZM120.192 135.532V113.084H114.192V135.532H120.192ZM117.192 110.084H108.912V116.084H117.192V110.084ZM111.912 113.084V105.908H105.912V113.084H111.912ZM108.912 108.908H117.376V102.908H108.912V108.908ZM120.356 106.253L122.104 91.1652L116.144 90.4747L114.396 105.563L120.356 106.253ZM119.124 93.82H125.472V87.82H119.124V93.82ZM122.472 90.82V105.908H128.472V90.82H122.472ZM125.472 108.908H138.72V102.908H125.472V108.908ZM135.72 105.908V113.084H141.72V105.908H135.72ZM138.72 110.084H125.472V116.084H138.72V110.084ZM122.472 113.084V136.176H128.472V113.084H122.472ZM122.472 136.176C122.472 139.983 123.23 143.518 125.604 145.794L129.756 141.462C129.187 140.917 128.472 139.483 128.472 136.176H122.472ZM125.649 145.836C127.737 147.756 130.271 148.744 133.108 148.744V142.744C131.775 142.744 130.69 142.321 129.711 141.42L125.649 145.836ZM133.108 148.744C134.967 148.744 136.758 148.445 138.457 147.827L136.407 142.189C135.408 142.552 134.316 142.744 133.108 142.744V148.744ZM138.418 147.841C139.989 147.295 141.453 146.636 142.799 145.856L139.793 140.664C138.809 141.233 137.697 141.74 136.447 142.175L138.418 147.841ZM138.462 144.244L140.762 150.868L146.43 148.9L144.13 142.276L138.462 144.244ZM142.053 147.312C141.096 147.886 139.675 148.508 137.705 149.146L139.552 154.854C141.752 154.142 143.644 153.354 145.14 152.456L142.053 147.312ZM137.63 149.171C135.874 149.791 134.034 150.104 132.096 150.104V156.104C134.697 156.104 137.212 155.681 139.627 154.829L137.63 149.171ZM157.715 148.596L155.44 150.552L155.461 150.576L155.482 150.6L157.715 148.596ZM153.759 113.084H156.759V110.084H153.759V113.084ZM145.479 113.084H142.479V116.084H145.479V113.084ZM145.479 105.908V102.908H142.479V105.908H145.479ZM153.943 105.908V108.908H156.615L156.923 106.253L153.943 105.908ZM155.691 90.82V87.82H153.018L152.711 90.4747L155.691 90.82ZM162.039 90.82H165.039V87.82H162.039V90.82ZM162.039 105.908H159.039V108.908H162.039V105.908ZM175.287 105.908H178.287V102.908H175.287V105.908ZM175.287 113.084V116.084H178.287V113.084H175.287ZM162.039 113.084V110.084H159.039V113.084H162.039ZM164.247 143.628L162.171 145.794L162.193 145.815L162.215 145.836L164.247 143.628ZM173.999 145.008L173.013 142.175L172.993 142.181L172.973 142.189L173.999 145.008ZM177.863 143.26L180.697 142.276L179.505 138.843L176.359 140.664L177.863 143.26ZM180.163 149.884L181.706 152.456L183.796 151.202L182.997 148.9L180.163 149.884ZM175.195 152L174.271 149.146L174.233 149.158L174.196 149.171L175.195 152ZM168.663 150.104C164.783 150.104 161.994 148.872 159.947 146.592L155.482 150.6C158.832 154.331 163.342 156.104 168.663 156.104V150.104ZM159.989 146.64C157.976 144.299 156.759 140.739 156.759 135.532H150.759C150.759 141.611 152.179 146.76 155.44 150.552L159.989 146.64ZM156.759 135.532V113.084H150.759V135.532H156.759ZM153.759 110.084H145.479V116.084H153.759V110.084ZM148.479 113.084V105.908H142.479V113.084H148.479ZM145.479 108.908H153.943V102.908H145.479V108.908ZM156.923 106.253L158.671 91.1652L152.711 90.4747L150.963 105.563L156.923 106.253ZM155.691 93.82H162.039V87.82H155.691V93.82ZM159.039 90.82V105.908H165.039V90.82H159.039ZM162.039 108.908H175.287V102.908H162.039V108.908ZM172.287 105.908V113.084H178.287V105.908H172.287ZM175.287 110.084H162.039V116.084H175.287V110.084ZM159.039 113.084V136.176H165.039V113.084H159.039ZM159.039 136.176C159.039 139.983 159.796 143.518 162.171 145.794L166.322 141.462C165.753 140.917 165.039 139.483 165.039 136.176H159.039ZM162.215 145.836C164.303 147.756 166.838 148.744 169.675 148.744V142.744C168.341 142.744 167.257 142.321 166.278 141.42L162.215 145.836ZM169.675 148.744C171.534 148.744 173.324 148.445 175.024 147.827L172.973 142.189C171.974 142.552 170.882 142.744 169.675 142.744V148.744ZM174.984 147.841C176.555 147.295 178.019 146.636 179.366 145.856L176.359 140.664C175.375 141.233 174.263 141.74 173.013 142.175L174.984 147.841ZM175.029 144.244L177.329 150.868L182.997 148.9L180.697 142.276L175.029 144.244ZM178.619 147.312C177.662 147.886 176.241 148.508 174.271 149.146L176.118 154.854C178.318 154.142 180.21 153.354 181.706 152.456L178.619 147.312ZM174.196 149.171C172.44 149.791 170.601 150.104 168.663 150.104V156.104C171.263 156.104 173.779 155.681 176.193 154.829L174.196 149.171ZM189.448 146.572L187.221 148.582L187.236 148.599L187.251 148.615L189.448 146.572ZM186.136 115.292L183.436 113.985L183.431 113.995L183.427 114.004L186.136 115.292ZM193.772 106.368L195.425 108.871L195.442 108.861L195.458 108.85L193.772 106.368ZM216.496 106.092L214.82 108.58L214.849 108.6L214.879 108.619L216.496 106.092ZM223.396 114.096L226.127 112.855L226.127 112.855L223.396 114.096ZM225.42 131.484V134.484H228.16L228.408 131.756L225.42 131.484ZM191.932 131.484V128.484H188.54L188.955 131.851L191.932 131.484ZM214.288 144.916L215.016 147.826L215.054 147.817L215.091 147.807L214.288 144.916ZM220.636 142.616L223.53 141.827L222.603 138.427L219.395 139.885L220.636 142.616ZM222.568 149.7L223.787 152.441L226.14 151.395L225.462 148.911L222.568 149.7ZM215.116 152.092L214.465 149.163L214.434 149.17L214.404 149.178L215.116 152.092ZM191.84 124.768L188.856 124.458L188.512 127.768H191.84V124.768ZM218.06 124.768V127.768H221.06V124.768H218.06ZM214.564 114.004L212.364 116.043L212.364 116.043L214.564 114.004ZM196.072 114.004L198.247 116.07L198.26 116.057L198.272 116.043L196.072 114.004ZM205.824 150.104C199.647 150.104 195.036 148.177 191.645 144.529L187.251 148.615C191.956 153.677 198.263 156.104 205.824 156.104V150.104ZM191.675 144.562C188.331 140.858 186.468 135.499 186.468 128.08H180.468C180.468 136.485 182.592 143.454 187.221 148.582L191.675 144.562ZM186.468 128.08C186.468 123.673 187.286 119.861 188.846 116.58L183.427 114.004C181.429 118.206 180.468 122.919 180.468 128.08H186.468ZM188.837 116.599C190.462 113.239 192.663 110.696 195.425 108.871L192.119 103.865C188.38 106.334 185.49 109.739 183.436 113.985L188.837 116.599ZM195.458 108.85C198.165 107.011 201.338 106.056 205.088 106.056V100.056C200.252 100.056 195.88 101.309 192.086 103.886L195.458 108.85ZM205.088 106.056C209.252 106.056 212.428 106.969 214.82 108.58L218.172 103.604C214.553 101.167 210.125 100.056 205.088 100.056V106.056ZM214.879 108.619C217.449 110.264 219.367 112.481 220.665 115.337L226.127 112.855C224.359 108.964 221.677 105.846 218.113 103.565L214.879 108.619ZM220.665 115.337C222.005 118.286 222.696 121.568 222.696 125.228H228.696C228.696 120.792 227.854 116.653 226.127 112.855L220.665 115.337ZM222.696 125.228C222.696 127.289 222.608 129.284 222.432 131.212L228.408 131.756C228.6 129.636 228.696 127.46 228.696 125.228H222.696ZM225.42 128.484H191.932V134.484H225.42V128.484ZM188.955 131.851C189.568 136.83 191.352 141.018 194.529 144.119L198.72 139.825C196.744 137.897 195.4 135.093 194.91 131.117L188.955 131.851ZM194.529 144.119C197.762 147.276 201.969 148.744 206.836 148.744V142.744C203.24 142.744 200.638 141.698 198.72 139.825L194.529 144.119ZM206.836 148.744C209.791 148.744 212.526 148.449 215.016 147.826L213.561 142.006C211.635 142.487 209.401 142.744 206.836 142.744V148.744ZM215.091 147.807C217.445 147.153 219.707 146.333 221.878 145.347L219.395 139.885C217.517 140.739 215.548 141.453 213.485 142.025L215.091 147.807ZM217.742 143.405L219.674 150.489L225.462 148.911L223.53 141.827L217.742 143.405ZM221.35 146.959C219.352 147.846 217.062 148.586 214.465 149.163L215.767 155.021C218.69 154.371 221.368 153.516 223.787 152.441L221.35 146.959ZM214.404 149.178C211.919 149.785 209.067 150.104 205.824 150.104V156.104C209.451 156.104 212.793 155.748 215.828 155.006L214.404 149.178ZM191.84 127.768H218.06V121.768H191.84V127.768ZM221.06 124.768C221.06 119.626 219.77 115.208 216.764 111.965L212.364 116.043C214.019 117.83 215.06 120.587 215.06 124.768H221.06ZM216.764 111.965C213.754 108.717 209.669 107.232 204.904 107.232V113.232C208.358 113.232 210.713 114.262 212.364 116.043L216.764 111.965ZM204.904 107.232C200.547 107.232 196.794 108.812 193.872 111.965L198.272 116.043C200.012 114.167 202.147 113.232 204.904 113.232V107.232ZM193.897 111.938C190.958 115.031 189.388 119.336 188.856 124.458L194.824 125.078C195.273 120.754 196.525 117.883 198.247 116.07L193.897 111.938ZM236.731 152H233.731V155H236.731V152ZM236.731 104.16V101.16H233.731V104.16H236.731ZM244.735 104.16H247.735V101.16H244.735V104.16ZM244.735 114.556H241.735L247.526 115.656L244.735 114.556ZM247.955 108.944L250.314 110.797L250.33 110.777L250.345 110.757L247.955 108.944ZM253.015 104.712L254.389 107.379L254.421 107.363L254.452 107.346L253.015 104.712ZM262.859 103.24L262.463 106.214L262.561 106.227L262.66 106.233L262.859 103.24ZM265.159 103.608L268.04 104.444L268.869 101.589L266.021 100.735L265.159 103.608ZM262.675 112.164L261.511 114.929L264.617 116.237L265.556 113L262.675 112.164ZM252.003 113.36L250.427 110.808L250.409 110.818L250.392 110.829L252.003 113.36ZM246.943 119.34L244.26 117.998L244.248 118.023L244.236 118.048L246.943 119.34ZM245.011 152V155H248.011V152H245.011ZM239.731 152V104.16H233.731V152H239.731ZM236.731 107.16H244.735V101.16H236.731V107.16ZM241.735 104.16V114.556H247.735V104.16H241.735ZM247.526 115.656C248.216 113.904 249.144 112.287 250.314 110.797L245.596 107.091C244.068 109.036 242.848 111.16 241.944 113.456L247.526 115.656ZM250.345 110.757C251.418 109.343 252.755 108.221 254.389 107.379L251.641 102.045C249.227 103.289 247.191 104.988 245.565 107.131L250.345 110.757ZM254.452 107.346C255.965 106.52 257.816 106.056 260.099 106.056V100.056C256.984 100.056 254.113 100.696 251.579 102.078L254.452 107.346ZM260.099 106.056C260.885 106.056 261.673 106.108 262.463 106.214L263.256 100.266C262.205 100.126 261.153 100.056 260.099 100.056V106.056ZM262.66 106.233C263.444 106.286 263.971 106.384 264.297 106.481L266.021 100.735C265.121 100.464 264.114 100.317 263.059 100.247L262.66 106.233ZM262.278 102.772L259.794 111.328L265.556 113L268.04 104.444L262.278 102.772ZM263.839 109.399C262.223 108.718 260.429 108.428 258.535 108.428V114.428C259.831 114.428 260.797 114.628 261.511 114.929L263.839 109.399ZM258.535 108.428C255.664 108.428 252.946 109.251 250.427 110.808L253.58 115.912C255.231 114.893 256.867 114.428 258.535 114.428V108.428ZM250.392 110.829C247.805 112.475 245.79 114.937 244.26 117.998L249.626 120.682C250.795 118.345 252.153 116.821 253.614 115.891L250.392 110.829ZM244.236 118.048C242.695 121.277 242.011 125.192 242.011 129.644H248.011C248.011 125.755 248.616 122.801 249.651 120.632L244.236 118.048ZM242.011 129.644V152H248.011V129.644H242.011ZM245.011 149H236.731V155H245.011V149ZM287.185 151.632L285.986 154.382L286.028 154.4L286.071 154.417L287.185 151.632ZM281.205 148.044L283.143 145.754L278.205 141.576V148.044H281.205ZM281.205 152V155H284.205V152H281.205ZM273.477 152H270.477V155H273.477V152ZM273.477 83.92V80.92H270.477V83.92H273.477ZM281.757 83.92H284.757V80.92H281.757V83.92ZM281.757 109.128H278.757V117.15L284.021 111.097L281.757 109.128ZM287.093 105.08L288.544 107.706L288.556 107.699L288.567 107.693L287.093 105.08ZM305.861 106L304.289 108.555L304.318 108.573L304.347 108.59L305.861 106ZM313.681 114.372L311.034 115.784L311.039 115.793L311.044 115.802L313.681 114.372ZM314.785 138.016L317.578 139.111L317.578 139.111L314.785 138.016ZM309.817 146.112L307.608 144.082L307.606 144.085L309.817 146.112ZM302.917 151.264L301.627 148.555L301.627 148.555L302.917 151.264ZM300.709 143.536L299.107 141L299.092 141.009L299.077 141.019L300.709 143.536ZM306.137 137.28L303.454 135.938L303.442 135.963L303.43 135.988L306.137 137.28ZM306.137 118.42L303.441 119.737L303.454 119.762L303.466 119.786L306.137 118.42ZM300.893 112.348L299.246 114.855L299.262 114.866L299.278 114.876L300.893 112.348ZM286.541 112.256L288.118 114.808L288.128 114.802L288.138 114.796L286.541 112.256ZM281.757 116.488L279.323 114.735L278.757 115.52V116.488H281.757ZM281.757 142.064H278.757V143.526L279.908 144.427L281.757 142.064ZM286.725 144.732L285.722 147.559L285.722 147.559L286.725 144.732ZM295.005 150.104C292.61 150.104 290.383 149.68 288.299 148.847L286.071 154.417C288.894 155.547 291.881 156.104 295.005 156.104V150.104ZM288.384 148.882C286.196 147.928 284.468 146.875 283.143 145.754L279.267 150.334C281.132 151.912 283.391 153.251 285.986 154.382L288.384 148.882ZM278.205 148.044V152H284.205V148.044H278.205ZM281.205 149H273.477V155H281.205V149ZM276.477 152V83.92H270.477V152H276.477ZM273.477 86.92H281.757V80.92H273.477V86.92ZM278.757 83.92V109.128H284.757V83.92H278.757ZM284.021 111.097C284.942 110.037 286.401 108.89 288.544 107.706L285.642 102.454C283.124 103.846 281.026 105.397 279.493 107.159L284.021 111.097ZM288.567 107.693C290.433 106.64 292.728 106.056 295.557 106.056V100.056C291.885 100.056 288.537 100.821 285.619 102.467L288.567 107.693ZM295.557 106.056C298.672 106.056 301.564 106.878 304.289 108.555L307.433 103.445C303.78 101.197 299.803 100.056 295.557 100.056V106.056ZM304.347 108.59C307.068 110.181 309.304 112.539 311.034 115.784L316.328 112.96C314.133 108.845 311.156 105.622 307.376 103.41L304.347 108.59ZM311.044 115.802C312.713 118.88 313.625 122.776 313.625 127.62H319.625C319.625 122.037 318.574 117.101 316.318 112.942L311.044 115.802ZM313.625 127.62C313.625 131.097 313.065 134.185 311.992 136.921L317.578 139.111C318.958 135.591 319.625 131.748 319.625 127.62H313.625ZM311.992 136.921C310.889 139.735 309.421 142.109 307.608 144.082L312.026 148.142C314.384 145.576 316.228 142.553 317.578 139.111L311.992 136.921ZM307.606 144.085C305.829 146.023 303.838 147.503 301.627 148.555L304.207 153.973C307.148 152.572 309.757 150.617 312.029 148.139L307.606 144.085ZM301.627 148.555C299.431 149.601 297.232 150.104 295.005 150.104V156.104C298.176 156.104 301.252 155.38 304.207 153.973L301.627 148.555ZM292.797 148.744C296.315 148.744 299.533 147.875 302.342 146.053L299.077 141.019C297.346 142.141 295.29 142.744 292.797 142.744V148.744ZM302.311 146.072C305.161 144.273 307.334 141.737 308.845 138.572L303.43 135.988C302.364 138.221 300.919 139.855 299.107 141L302.311 146.072ZM308.82 138.622C310.412 135.438 311.161 131.836 311.161 127.896H305.161C305.161 131.071 304.561 133.725 303.454 135.938L308.82 138.622ZM311.161 127.896C311.161 123.854 310.42 120.204 308.808 117.054L303.466 119.786C304.553 121.911 305.161 124.578 305.161 127.896H311.161ZM308.833 117.103C307.333 114.032 305.235 111.562 302.508 109.82L299.278 114.876C300.967 115.955 302.366 117.534 303.441 119.737L308.833 117.103ZM302.541 109.841C299.891 108.1 296.923 107.232 293.717 107.232V113.232C295.786 113.232 297.602 113.775 299.246 114.855L302.541 109.841ZM293.717 107.232C290.539 107.232 287.589 108.054 284.945 109.716L288.138 114.796C289.786 113.76 291.621 113.232 293.717 113.232V107.232ZM284.965 109.704C282.639 111.14 280.715 112.802 279.323 114.735L284.192 118.241C285.008 117.108 286.273 115.948 288.118 114.808L284.965 109.704ZM278.757 116.488V142.064H284.757V116.488H278.757ZM279.908 144.427C281.604 145.754 283.554 146.79 285.722 147.559L287.728 141.905C286.094 141.325 284.732 140.582 283.606 139.701L279.908 144.427ZM285.722 147.559C287.966 148.355 290.331 148.744 292.797 148.744V142.744C290.97 142.744 289.288 142.458 287.728 141.905L285.722 147.559ZM336.014 149.976L334.484 152.556L334.5 152.566L334.516 152.575L336.014 149.976ZM327.458 141.144L324.81 142.554L324.824 142.579L324.838 142.605L327.458 141.144ZM327.55 114.74L324.93 113.279L324.93 113.279L327.55 114.74ZM336.106 106.092L337.571 108.71L337.571 108.71L336.106 106.092ZM360.302 106.092L358.819 108.699L358.828 108.705L358.838 108.71L360.302 106.092ZM368.858 114.74L366.238 116.201L366.252 116.226L366.267 116.252L368.858 114.74ZM368.95 141.236L371.571 142.697L371.576 142.688L371.581 142.678L368.95 141.236ZM360.394 149.976L358.896 147.377L358.887 147.382L358.877 147.388L360.394 149.976ZM359.566 140.868L361.874 142.784L361.883 142.774L361.892 142.763L359.566 140.868ZM361.59 119.34L358.907 120.682L358.913 120.694L358.919 120.706L361.59 119.34ZM356.07 112.9L354.302 115.323L354.339 115.35L354.376 115.376L356.07 112.9ZM336.934 115.2L339.224 117.138L339.224 117.138L336.934 115.2ZM334.91 136.82L332.215 138.138L332.221 138.15L332.227 138.162L334.91 136.82ZM340.338 143.352L338.57 145.775L338.607 145.802L338.644 145.828L340.338 143.352ZM348.25 150.104C344.19 150.104 340.636 149.177 337.512 147.377L334.516 152.575C338.63 154.946 343.233 156.104 348.25 156.104V150.104ZM337.545 147.396C334.39 145.525 331.911 142.971 330.079 139.683L324.838 142.605C327.176 146.8 330.401 150.134 334.484 152.556L337.545 147.396ZM330.106 139.734C328.344 136.423 327.422 132.564 327.422 128.08H321.422C321.422 133.409 322.525 138.26 324.81 142.554L330.106 139.734ZM327.422 128.08C327.422 123.336 328.38 119.413 330.171 116.201L324.93 113.279C322.55 117.55 321.422 122.52 321.422 128.08H327.422ZM330.171 116.201C331.995 112.928 334.454 110.454 337.571 108.71L334.642 103.474C330.521 105.778 327.276 109.069 324.93 113.279L330.171 116.201ZM337.571 108.71C340.706 106.956 344.243 106.056 348.25 106.056V100.056C343.302 100.056 338.743 101.18 334.642 103.474L337.571 108.71ZM348.25 106.056C352.258 106.056 355.755 106.956 358.819 108.699L361.786 103.485C357.735 101.18 353.197 100.056 348.25 100.056V106.056ZM358.838 108.71C361.955 110.454 364.414 112.928 366.238 116.201L371.479 113.279C369.132 109.069 365.887 105.778 361.767 103.474L358.838 108.71ZM366.267 116.252C368.098 119.391 369.078 123.233 369.078 127.896H375.078C375.078 122.378 373.912 117.449 371.45 113.228L366.267 116.252ZM369.078 127.896C369.078 132.57 368.124 136.504 366.32 139.794L371.581 142.678C373.947 138.363 375.078 133.403 375.078 127.896H369.078ZM366.33 139.775C364.502 143.055 362.032 145.57 358.896 147.377L361.892 152.575C365.994 150.212 369.228 146.899 371.571 142.697L366.33 139.775ZM358.877 147.388C355.825 149.177 352.311 150.104 348.25 150.104V156.104C353.267 156.104 357.848 154.946 361.911 152.564L358.877 147.388ZM348.25 148.744C353.841 148.744 358.518 146.827 361.874 142.784L357.258 138.952C355.217 141.41 352.35 142.744 348.25 142.744V148.744ZM361.892 142.763C365.117 138.805 366.614 133.827 366.614 128.08H360.614C360.614 132.76 359.413 136.307 357.24 138.973L361.892 142.763ZM366.614 128.08C366.614 124.453 365.843 121.066 364.261 117.974L358.919 120.706C360.036 122.889 360.614 125.329 360.614 128.08H366.614ZM364.273 117.998C362.712 114.876 360.544 112.326 357.764 110.424L354.376 115.376C356.257 116.663 357.769 118.407 358.907 120.682L364.273 117.998ZM357.839 110.477C355.03 108.427 351.797 107.416 348.25 107.416V113.416C350.591 113.416 352.572 114.061 354.302 115.323L357.839 110.477ZM348.25 107.416C342.679 107.416 338.007 109.288 334.644 113.262L339.224 117.138C341.259 114.733 344.131 113.416 348.25 113.416V107.416ZM334.644 113.262C331.377 117.123 329.886 122.103 329.886 127.896H335.886C335.886 123.14 337.094 119.655 339.224 117.138L334.644 113.262ZM329.886 127.896C329.886 131.524 330.657 134.952 332.215 138.138L337.605 135.502C336.464 133.168 335.886 130.647 335.886 127.896H329.886ZM332.227 138.162C333.774 141.256 335.885 143.816 338.57 145.775L342.107 140.929C340.253 139.576 338.745 137.781 337.593 135.478L332.227 138.162ZM338.644 145.828C341.496 147.779 344.729 148.744 348.25 148.744V142.744C345.884 142.744 343.842 142.114 342.032 140.876L338.644 145.828ZM413.203 152.828L410.868 154.711L412.804 157.112L415.15 155.111L413.203 152.828ZM397.103 132.864L399.438 130.981L397.1 128.082L394.766 130.983L397.103 132.864ZM381.187 152.644L379.211 154.902L381.564 156.96L383.524 154.525L381.187 152.644ZM375.299 147.492L373.025 145.535L371.084 147.791L373.323 149.75L375.299 147.492ZM392.319 127.712L394.593 129.669L396.28 127.708L394.589 125.751L392.319 127.712ZM375.943 108.76L373.972 106.498L371.72 108.461L373.673 110.721L375.943 108.76ZM382.383 103.148L384.755 101.312L382.809 98.7974L380.412 100.886L382.383 103.148ZM397.195 122.284L394.823 124.12L397.194 127.184L399.567 124.121L397.195 122.284ZM411.731 103.516L413.675 101.231L411.282 99.1957L409.359 101.679L411.731 103.516ZM417.895 108.76L420.173 110.711L422.131 108.425L419.839 106.475L417.895 108.76ZM401.979 127.344L399.7 125.393L398.018 127.357L399.713 129.31L401.979 127.344ZM419.459 147.492L421.406 149.775L423.708 147.811L421.725 145.526L419.459 147.492ZM415.538 150.945L399.438 130.981L394.768 134.747L410.868 154.711L415.538 150.945ZM394.766 130.983L378.85 150.763L383.524 154.525L399.44 134.745L394.766 130.983ZM383.162 150.386L377.274 145.234L373.323 149.75L379.211 154.902L383.162 150.386ZM377.573 149.449L394.593 129.669L390.045 125.755L373.025 145.535L377.573 149.449ZM394.589 125.751L378.213 106.799L373.673 110.721L390.049 129.673L394.589 125.751ZM377.914 111.022L384.354 105.41L380.412 100.886L373.972 106.498L377.914 111.022ZM380.011 104.984L394.823 124.12L399.567 120.448L384.755 101.312L380.011 104.984ZM399.567 124.121L414.103 105.353L409.359 101.679L394.823 120.447L399.567 124.121ZM409.787 105.801L415.951 111.045L419.839 106.475L413.675 101.231L409.787 105.801ZM415.616 106.809L399.7 125.393L404.257 129.295L420.173 110.711L415.616 106.809ZM399.713 129.31L417.193 149.458L421.725 145.526L404.245 125.378L399.713 129.31ZM417.512 145.209L411.256 150.545L415.15 155.111L421.406 149.775L417.512 145.209ZM433.751 150.068L435.337 147.521L435.337 147.521L433.751 150.068ZM426.023 141.512L423.349 142.871L423.353 142.88L423.358 142.889L426.023 141.512ZM426.023 115.384L423.357 114.008L423.349 114.025L423.34 114.042L426.023 115.384ZM433.751 106.368L432.066 103.886L432.055 103.894L432.044 103.901L433.751 106.368ZM452.611 104.988L451.13 107.597L451.145 107.605L451.16 107.614L452.611 104.988ZM458.039 108.944L455.869 111.015L461.039 116.432V108.944H458.039ZM458.039 83.92V80.92H455.039V83.92H458.039ZM466.319 83.92H469.319V80.92H466.319V83.92ZM467.975 145.008L466.311 147.504L466.39 147.557L466.472 147.604L467.975 145.008ZM471.747 146.02L474.642 146.806L475.67 143.02H471.747V146.02ZM469.999 152.46V155.46H472.294L472.894 153.246L469.999 152.46ZM459.327 145.468L462.219 144.669L460.537 138.58L456.881 143.732L459.327 145.468ZM453.623 150.712L451.988 148.197L451.974 148.206L451.959 148.216L453.623 150.712ZM452.795 144.18L454.169 146.847L454.184 146.839L454.199 146.831L452.795 144.18ZM458.039 139.948L460.357 141.852L461.039 141.022V139.948H458.039ZM458.039 116.212H461.039V115.168L460.391 114.35L458.039 116.212ZM453.163 112.164L451.587 114.716L451.614 114.733L451.642 114.75L453.163 112.164ZM438.535 112.624L436.779 110.192L436.779 110.192L438.535 112.624ZM433.383 119.064L430.652 117.823L430.646 117.837L430.639 117.852L433.383 119.064ZM433.567 137.188L430.86 138.48L430.866 138.492L430.872 138.505L433.567 137.188ZM438.811 143.444L437.1 145.908L437.116 145.919L437.132 145.93L438.811 143.444ZM444.515 150.104C441.136 150.104 438.099 149.241 435.337 147.521L432.166 152.615C435.905 154.943 440.044 156.104 444.515 156.104V150.104ZM435.337 147.521C432.582 145.806 430.363 143.376 428.689 140.135L423.358 142.889C425.486 147.008 428.419 150.282 432.166 152.615L435.337 147.521ZM428.698 140.153C427.049 136.908 426.171 133.006 426.171 128.356H420.171C420.171 133.765 421.195 138.633 423.349 142.871L428.698 140.153ZM426.171 128.356C426.171 123.911 427.041 120.057 428.707 116.726L423.34 114.042C421.203 118.316 420.171 123.11 420.171 128.356H426.171ZM428.689 116.76C430.45 113.348 432.714 110.735 435.459 108.835L432.044 103.901C428.41 106.417 425.522 109.815 423.357 114.008L428.689 116.76ZM435.437 108.85C438.199 106.973 441.171 106.056 444.423 106.056V100.056C439.947 100.056 435.805 101.347 432.066 103.886L435.437 108.85ZM444.423 106.056C447.208 106.056 449.403 106.617 451.13 107.597L454.092 102.379C451.281 100.783 448.017 100.056 444.423 100.056V106.056ZM451.16 107.614C453.328 108.812 454.86 109.958 455.869 111.015L460.209 106.873C458.642 105.231 456.556 103.74 454.062 102.362L451.16 107.614ZM461.039 108.944V83.92H455.039V108.944H461.039ZM458.039 86.92H466.319V80.92H458.039V86.92ZM463.319 83.92V140.408H469.319V83.92H463.319ZM463.319 140.408C463.319 142.992 463.899 145.896 466.311 147.504L469.639 142.512C469.734 142.575 469.665 142.592 469.556 142.29C469.436 141.957 469.319 141.363 469.319 140.408H463.319ZM466.472 147.604C468.095 148.544 469.871 149.02 471.747 149.02V143.02C470.925 143.02 470.186 142.821 469.478 142.412L466.472 147.604ZM468.852 145.234L467.104 151.674L472.894 153.246L474.642 146.806L468.852 145.234ZM469.999 149.46C467.461 149.46 465.746 148.95 464.605 148.203C463.52 147.492 462.697 146.4 462.219 144.669L456.436 146.267C457.245 149.198 458.845 151.602 461.317 153.221C463.734 154.805 466.711 155.46 469.999 155.46V149.46ZM456.881 143.732C455.798 145.257 454.202 146.758 451.988 148.197L455.258 153.227C457.951 151.477 460.157 149.482 461.774 147.204L456.881 143.732ZM451.959 148.216C450.181 149.401 447.768 150.104 444.515 150.104V156.104C448.623 156.104 452.281 155.212 455.287 153.208L451.959 148.216ZM446.355 148.744C449.104 148.744 451.722 148.108 454.169 146.847L451.421 141.513C449.821 142.338 448.145 142.744 446.355 142.744V148.744ZM454.199 146.831C456.614 145.553 458.679 143.895 460.357 141.852L455.721 138.044C454.578 139.435 453.148 140.599 451.392 141.529L454.199 146.831ZM461.039 139.948V116.212H455.039V139.948H461.039ZM460.391 114.35C458.94 112.517 457.001 110.941 454.684 109.578L451.642 114.75C453.496 115.84 454.807 116.963 455.687 118.074L460.391 114.35ZM454.74 109.612C452.168 108.023 449.32 107.232 446.263 107.232V113.232C448.236 113.232 449.988 113.729 451.587 114.716L454.74 109.612ZM446.263 107.232C442.742 107.232 439.54 108.198 436.779 110.192L440.292 115.056C441.946 113.861 443.896 113.232 446.263 113.232V107.232ZM436.779 110.192C434.111 112.119 432.075 114.692 430.652 117.823L436.114 120.305C437.145 118.038 438.543 116.319 440.292 115.056L436.779 110.192ZM430.639 117.852C429.279 120.93 428.635 124.359 428.635 128.08H434.635C434.635 125.054 435.157 122.472 436.127 120.276L430.639 117.852ZM428.635 128.08C428.635 131.843 429.356 135.329 430.86 138.48L436.275 135.896C435.203 133.65 434.635 131.064 434.635 128.08H428.635ZM430.872 138.505C432.363 141.559 434.433 144.056 437.1 145.908L440.522 140.98C438.773 139.765 437.347 138.092 436.263 135.871L430.872 138.505ZM437.132 145.93C439.901 147.801 443.002 148.744 446.355 148.744V142.744C444.189 142.744 442.26 142.154 440.491 140.958L437.132 145.93Z" fill="black" mask="url(#path-4-outside-1_73_7)"/>
</svg>
