<svg width="246" height="247" viewBox="0 0 246 247" fill="none" xmlns="http://www.w3.org/2000/svg">
<path d="M8.46148 38.5097C64.8317 37.9216 121.158 35.7048 177.339 31.3333C182.174 30.9392 185.153 33.6345 185.285 38.5207C187.364 81.5032 185.871 124.361 181.07 167.044C179.637 179.329 177.891 191.402 175.933 203.789C175.283 207.463 172.536 210.179 168.651 209.843C165.342 209.668 161.946 206.235 162.596 202.561C169.391 160.309 172.776 117.356 172.64 74.5419C172.706 62.2497 172.196 49.7968 171.736 37.6069C174.402 40.0903 177.017 42.3108 179.682 44.7942C135.013 48.0197 90.4524 50.4053 45.6367 51.4761C32.8697 51.7748 20.1027 52.0735 7.28468 52.1092C3.76427 52.2478 0.792038 48.1867 1.23047 44.827C1.51557 40.6785 4.88997 38.3854 8.46148 38.5097Z" fill="black"/>
<path d="M142.951 143.61C145.142 156.282 148.596 168.436 153.364 180.334C155.592 186.177 158.345 191.918 161.31 197.345C162.975 200.296 164.377 203.298 166.254 205.934C166.619 206.409 167.291 208.462 168.131 208.571C168.445 208.783 167.342 208.725 167.817 208.359C170.081 207.374 171.775 204.861 173.623 203.138C176.158 200.735 178.692 198.332 181.227 195.929C186.084 191.438 190.942 186.946 195.799 182.455C205.725 173.158 215.652 163.861 225.527 154.301C231.757 148.451 240.528 158.48 234.298 164.329C216.98 180.521 199.713 196.975 182.395 213.166C178.487 216.927 174.155 221.317 168.48 221.601C162.542 221.937 158.256 218.131 155.444 213.493C149.507 204.005 144.782 193.736 140.634 183.627C135.814 171.466 132.258 158.787 130.017 145.852C128.169 137.752 141.316 135.196 142.951 143.61Z" fill="black"/>
</svg>
